<?xml version="1.0" encoding="utf-8"?>
<!-- Generator: Adobe Illustrator 24.3.0, SVG Export Plug-In . SVG Version: 6.00 Build 0)  -->
<svg version="1.1" id="Calque_1" xmlns="http://www.w3.org/2000/svg" xmlns:xlink="http://www.w3.org/1999/xlink" x="0px" y="0px"
	 viewBox="0 0 22 21" style="enable-background:new 0 0 22 21;" xml:space="preserve">
<style type="text/css">
	.st0{fill:none;stroke:#101010;}
</style>
<path class="st0" d="M12.2,2.4L12.2,2.4l-0.8,1L11,3.8l-0.4-0.4l-0.8-1l0,0c-2-2.3-5.2-2.6-7.3-0.6c-2.5,2.3-2.6,6.5-0.4,9l8.3,9.4
	c0,0,0,0,0,0c0.3,0.4,0.9,0.4,1.2,0c0,0,0,0,0,0l8.3-9.4l0,0c2.2-2.5,2.1-6.7-0.4-9 M12.2,2.4c2-2.3,5.2-2.6,7.3-0.6"/>
</svg>
